<?xml version="1.0" encoding="UTF-8" standalone="no"?>
<svg
   xmlns:dc="http://purl.org/dc/elements/1.1/"
   xmlns:cc="http://creativecommons.org/ns#"
   xmlns:rdf="http://www.w3.org/1999/02/22-rdf-syntax-ns#"
   xmlns:svg="http://www.w3.org/2000/svg"
   xmlns="http://www.w3.org/2000/svg"
   xmlns:sodipodi="http://sodipodi.sourceforge.net/DTD/sodipodi-0.dtd"
   xmlns:inkscape="http://www.inkscape.org/namespaces/inkscape"
   height="24"
   viewBox="0 0 24 24"
   width="24"
   version="1.1"
   id="svg6"
   sodipodi:docname="ar_shopping_cart-24px.svg"
   inkscape:version="1.0.1 (3bc2e813f5, 2020-09-07)">
  <metadata
     id="metadata12">
    <rdf:RDF>
      <cc:Work
         rdf:about="">
        <dc:format>image/svg+xml</dc:format>
        <dc:type
           rdf:resource="http://purl.org/dc/dcmitype/StillImage" />
        <dc:title />
      </cc:Work>
    </rdf:RDF>
  </metadata>
  <defs
     id="defs10" />
  <sodipodi:namedview
     pagecolor="#ffffff"
     bordercolor="#666666"
     borderopacity="1"
     objecttolerance="10"
     gridtolerance="10"
     guidetolerance="10"
     inkscape:pageopacity="0"
     inkscape:pageshadow="2"
     inkscape:window-width="1920"
     inkscape:window-height="1016"
     id="namedview8"
     showgrid="false"
     inkscape:zoom="22.234412"
     inkscape:cx="-4.4249582"
     inkscape:cy="11.161554"
     inkscape:window-x="0"
     inkscape:window-y="27"
     inkscape:window-maximized="1"
     inkscape:current-layer="layer2"
     inkscape:document-rotation="0"
     inkscape:snap-text-baseline="true" />
  <path
     d="M0 0h24v24H0V0z"
     fill="none"
     id="path2" />
  <g
     inkscape:groupmode="layer"
     id="layer2"
     inkscape:label="Icon"
     style="display:inline">
    <g
       aria-label="A"
       transform="rotate(0.10860659)"
       id="text10"
       style="font-style:normal;font-variant:normal;font-weight:bold;font-stretch:normal;font-size:12px;line-height:1.25;font-family:'Open Sans';-inkscape-font-specification:'Open Sans Bold';fill:#000000;fill-opacity:1;stroke:none">
      <path
         id="path33"
         style="font-style:normal;font-variant:normal;font-weight:bold;font-stretch:normal;font-size:12px;font-family:'Open Sans';-inkscape-font-specification:'Open Sans Bold';fill:#ffffff"
         d="M 15.742188 1.3613281 C 15.225095 1.3170654 14.601458 1.4228696 13.869141 1.6796875 L 11.789062 2.4082031 L 9.5683594 2.4042969 L 7.3847656 8.5820312 L 4.2695312 2 L 1 2 L 1 4 L 3 4 L 6.5996094 11.589844 L 5.25 14.029297 C 4.52 15.369297 5.48 17 7 17 L 19 17 L 19 15 L 7 15 L 8.0996094 13 L 15.550781 13 C 16.300781 13 16.960781 12.590703 17.300781 11.970703 L 21.160156 4.9609375 L 19.419922 4 L 18.191406 6.2207031 C 17.927833 6.0241009 17.880684 5.9898315 16.824219 5.1972656 C 17.184678 4.8611209 17.423285 4.489321 17.541016 4.0800781 C 17.657597 3.6675583 17.642371 3.2488518 17.494141 2.8261719 C 17.240195 2.1020457 16.815308 1.6446322 16.222656 1.4550781 C 16.074206 1.4068704 15.914552 1.3760824 15.742188 1.3613281 z M 14.857422 2.796875 C 15.051093 2.7694312 15.217776 2.7714416 15.359375 2.8027344 C 15.645849 2.8641709 15.849246 3.0635317 15.96875 3.4042969 C 16.089403 3.7483387 16.063681 4.0422153 15.890625 4.2832031 C 15.717568 4.5241911 15.389861 4.7295237 14.908203 4.8984375 L 14.416016 5.0703125 L 13.736328 3.1289062 L 14.197266 2.9667969 C 14.44301 2.8806163 14.663751 2.8243188 14.857422 2.796875 z M 10.685547 3.7363281 C 10.71653 3.8770121 10.766085 4.0682265 10.835938 4.3105469 C 10.909698 4.5528746 11.232019 5.5985242 11.802734 7.4472656 L 9.5703125 7.4433594 C 10.183425 5.4718617 10.555693 4.2360829 10.685547 3.7363281 z M 15.662109 6.0234375 L 17.490234 7.4921875 L 15.550781 11 L 14.802734 11 L 14.310547 9.59375 L 15.818359 9.0664062 L 14.851562 6.3085938 L 15.662109 6.0234375 z M 9.1113281 8.9667969 L 12.234375 8.9726562 L 12.847656 11 L 8.5292969 11 L 8.5039062 10.947266 L 9.1113281 8.9667969 z "
         transform="rotate(-0.10860659)" />
    </g>
    <g
       aria-label="R"
       transform="rotate(-19.325366)"
       id="text14"
       style="font-style:normal;font-variant:normal;font-weight:bold;font-stretch:normal;font-size:10.6667px;line-height:1.25;font-family:'Open Sans';-inkscape-font-specification:'Open Sans Bold';fill:#000000;fill-opacity:1;stroke:none" />
    <path
       d="m 17,18 c -1.1,0 -1.990234,0.9 -1.990234,2 0,1.1 0.890234,2 1.990234,2 1.1,0 2,-0.9 2,-2 0,-1.1 -0.9,-2 -2,-2 z"
       id="path40"
       style="fill:#ffffff" />
    <path
       d="M 7,18 C 5.9,18 5.009765,18.9 5.009765,20 5.009765,21.1 5.9,22 7,22 8.1,22 9,21.1 9,20 9,18.9 8.1,18 7,18 Z"
       id="path38"
       style="fill:#ffffff" />
  </g>
</svg>
