<?xml version="1.0" encoding="UTF-8" standalone="no"?>
<svg
   xmlns:dc="http://purl.org/dc/elements/1.1/"
   xmlns:cc="http://creativecommons.org/ns#"
   xmlns:rdf="http://www.w3.org/1999/02/22-rdf-syntax-ns#"
   xmlns:svg="http://www.w3.org/2000/svg"
   xmlns="http://www.w3.org/2000/svg"
   xmlns:sodipodi="http://sodipodi.sourceforge.net/DTD/sodipodi-0.dtd"
   xmlns:inkscape="http://www.inkscape.org/namespaces/inkscape"
   height="24"
   viewBox="0 0 24 24"
   width="24"
   version="1.1"
   id="svg6"
   sodipodi:docname="ar_shopping_cart-24px.svg"
   inkscape:version="1.0.1 (3bc2e813f5, 2020-09-07)">
  <metadata
     id="metadata12">
    <rdf:RDF>
      <cc:Work
         rdf:about="">
        <dc:format>image/svg+xml</dc:format>
        <dc:type
           rdf:resource="http://purl.org/dc/dcmitype/StillImage" />
        <dc:title />
      </cc:Work>
    </rdf:RDF>
  </metadata>
  <defs
     id="defs10" />
  <sodipodi:namedview
     pagecolor="#ffffff"
     bordercolor="#666666"
     borderopacity="1"
     objecttolerance="10"
     gridtolerance="10"
     guidetolerance="10"
     inkscape:pageopacity="0"
     inkscape:pageshadow="2"
     inkscape:window-width="1920"
     inkscape:window-height="1016"
     id="namedview8"
     showgrid="false"
     inkscape:zoom="23.479026"
     inkscape:cx="9.5527245"
     inkscape:cy="9.1859374"
     inkscape:window-x="0"
     inkscape:window-y="27"
     inkscape:window-maximized="1"
     inkscape:current-layer="layer2"
     inkscape:document-rotation="0"
     inkscape:snap-text-baseline="true" />
  <path
     d="M0 0h24v24H0V0z"
     fill="none"
     id="path2" />
  <g
     inkscape:groupmode="layer"
     id="layer2"
     inkscape:label="Icon"
     style="display:inline">
    <text
       xml:space="preserve"
       style="font-style:normal;font-variant:normal;font-weight:bold;font-stretch:normal;font-size:12px;line-height:1.25;font-family:'Open Sans';-inkscape-font-specification:'Open Sans Bold';fill:#000000;fill-opacity:1;stroke:none"
       x="6.5501366"
       y="10.987603"
       id="text10"
       transform="rotate(0.10860659)"><tspan
         sodipodi:role="line"
         id="tspan8"
         x="6.5501366"
         y="10.987603"
         style="font-style:normal;font-variant:normal;font-weight:bold;font-stretch:normal;font-size:12px;font-family:'Open Sans';-inkscape-font-specification:'Open Sans Bold'">A</tspan></text>
    <text
       xml:space="preserve"
       style="font-style:normal;font-variant:normal;font-weight:bold;font-stretch:normal;font-size:10.6667px;line-height:1.25;font-family:'Open Sans';-inkscape-font-specification:'Open Sans Bold';fill:#000000;fill-opacity:1;stroke:none"
       x="9.3536663"
       y="13.789694"
       id="text14"
       transform="rotate(-19.325366)"><tspan
         sodipodi:role="line"
         id="tspan12"
         x="9.3536663"
         y="13.789694">R</tspan></text>
    <path
       id="path4-3"
       d="M 1,2 V 4 H 3 L 6.599609,11.589844 5.25,14.029297 C 4.52,15.369297 5.48,17 7,17 H 19 V 15 H 7 l 1.099609,-2 h 7.451172 c 0.75,0 1.41,-0.409297 1.75,-1.029297 L 21.160156,4.9609375 19.419922,4 15.550781,11 H 8.529296 L 4.269531,2 Z M 7,18 C 5.9,18 5.009765,18.9 5.009765,20 5.009765,21.1 5.9,22 7,22 8.1,22 9,21.1 9,20 9,18.9 8.1,18 7,18 Z m 10,0 c -1.1,0 -1.990234,0.9 -1.990234,2 0,1.1 0.890234,2 1.990234,2 1.1,0 2,-0.9 2,-2 0,-1.1 -0.9,-2 -2,-2 z" />
  </g>
</svg>
