<?xml version="1.0" encoding="UTF-8" standalone="no"?>
<svg
   xmlns:dc="http://purl.org/dc/elements/1.1/"
   xmlns:cc="http://creativecommons.org/ns#"
   xmlns:rdf="http://www.w3.org/1999/02/22-rdf-syntax-ns#"
   xmlns:svg="http://www.w3.org/2000/svg"
   xmlns="http://www.w3.org/2000/svg"
   xmlns:sodipodi="http://sodipodi.sourceforge.net/DTD/sodipodi-0.dtd"
   xmlns:inkscape="http://www.inkscape.org/namespaces/inkscape"
   height="24"
   viewBox="0 0 24 24"
   width="24"
   version="1.1"
   id="svg6"
   sodipodi:docname="add_shopping_cart-24px.svg"
   inkscape:version="1.0.1 (3bc2e813f5, 2020-09-07)">
  <metadata
     id="metadata12">
    <rdf:RDF>
      <cc:Work
         rdf:about="">
        <dc:format>image/svg+xml</dc:format>
        <dc:type
           rdf:resource="http://purl.org/dc/dcmitype/StillImage" />
      </cc:Work>
    </rdf:RDF>
  </metadata>
  <defs
     id="defs10" />
  <sodipodi:namedview
     pagecolor="#ffffff"
     bordercolor="#666666"
     borderopacity="1"
     objecttolerance="10"
     gridtolerance="10"
     guidetolerance="10"
     inkscape:pageopacity="0"
     inkscape:pageshadow="2"
     inkscape:window-width="1920"
     inkscape:window-height="1016"
     id="namedview8"
     showgrid="false"
     inkscape:zoom="35.666667"
     inkscape:cx="12"
     inkscape:cy="8.5197293"
     inkscape:window-x="0"
     inkscape:window-y="27"
     inkscape:window-maximized="1"
     inkscape:current-layer="svg6" />
  <path
     d="M0 0h24v24H0V0z"
     fill="none"
     id="path2" />
  <path
     id="path4"
     d="M 1 2 L 1 4 L 3 4 L 6.5996094 11.589844 L 5.25 14.029297 C 4.52 15.369297 5.48 17 7 17 L 19 17 L 19 15 L 7 15 L 8.0996094 13 L 15.550781 13 C 16.300781 13 16.960781 12.590703 17.300781 11.970703 L 21.160156 4.9609375 L 19.419922 4 L 15.550781 11 L 8.5292969 11 L 4.2695312 2 L 1 2 z M 7 18 C 5.9 18 5.0097656 18.9 5.0097656 20 C 5.0097656 21.1 5.9 22 7 22 C 8.1 22 9 21.1 9 20 C 9 18.9 8.1 18 7 18 z M 17 18 C 15.9 18 15.009766 18.9 15.009766 20 C 15.009766 21.1 15.9 22 17 22 C 18.1 22 19 21.1 19 20 C 19 18.9 18.1 18 17 18 z " />
</svg>
